<mxfile host="app.diagrams.net" agent="Mozilla/5.0 (Windows NT 10.0; Win64; x64) AppleWebKit/537.36 (KHTML, like Gecko) Chrome/135.0.0.0 Safari/537.36 Edg/135.0.0.0" version="26.2.13" pages="2">
  <diagram id="C5RBs43oDa-KdzZeNtuy" name="Page-1">
    <mxGraphModel dx="1290" dy="815" grid="1" gridSize="10" guides="1" tooltips="1" connect="1" arrows="1" fold="1" page="1" pageScale="1" pageWidth="1169" pageHeight="827" math="0" shadow="0">
      <root>
        <mxCell id="WIyWlLk6GJQsqaUBKTNV-0" />
        <mxCell id="WIyWlLk6GJQsqaUBKTNV-1" parent="WIyWlLk6GJQsqaUBKTNV-0" />
        <mxCell id="WIyWlLk6GJQsqaUBKTNV-2" value="" style="rounded=0;html=1;jettySize=auto;orthogonalLoop=1;fontSize=11;endArrow=block;endFill=0;endSize=8;strokeWidth=1;shadow=0;labelBackgroundColor=none;edgeStyle=orthogonalEdgeStyle;strokeColor=#E07A5F;fontColor=default;" parent="WIyWlLk6GJQsqaUBKTNV-1" source="WIyWlLk6GJQsqaUBKTNV-3" target="WIyWlLk6GJQsqaUBKTNV-6" edge="1">
          <mxGeometry relative="1" as="geometry" />
        </mxCell>
        <mxCell id="WIyWlLk6GJQsqaUBKTNV-3" value="证据能力判断模块&lt;div&gt;&lt;span style=&quot;font-size:10.5pt;mso-bidi-font-size:&lt;br/&gt;11.0pt;font-family:&amp;quot;Times New Roman&amp;quot;,serif;mso-fareast-font-family:宋体;&lt;br/&gt;mso-font-kerning:1.0pt;mso-ansi-language:EN-US;mso-fareast-language:ZH-CN;&lt;br/&gt;mso-bidi-language:AR-SA&quot; lang=&quot;EN-US&quot;&gt;evidence_screening&lt;/span&gt;&lt;/div&gt;" style="rounded=1;whiteSpace=wrap;html=1;fontSize=12;glass=0;strokeWidth=1;shadow=0;fillColor=#ffe6cc;strokeColor=#d79b00;labelBackgroundColor=none;" parent="WIyWlLk6GJQsqaUBKTNV-1" vertex="1">
          <mxGeometry x="334.6218487394958" y="135.1315789473684" width="174.78991596638653" height="55.26315789473684" as="geometry" />
        </mxCell>
        <mxCell id="WIyWlLk6GJQsqaUBKTNV-4" value="有关" style="rounded=0;html=1;jettySize=auto;orthogonalLoop=1;fontSize=11;endArrow=block;endFill=0;endSize=8;strokeWidth=1;shadow=0;labelBackgroundColor=none;edgeStyle=orthogonalEdgeStyle;strokeColor=#E07A5F;fontColor=default;entryX=0.5;entryY=0;entryDx=0;entryDy=0;" parent="WIyWlLk6GJQsqaUBKTNV-1" source="WIyWlLk6GJQsqaUBKTNV-6" target="WIyWlLk6GJQsqaUBKTNV-12" edge="1">
          <mxGeometry x="-0.0013" y="-6" relative="1" as="geometry">
            <mxPoint x="12" as="offset" />
          </mxGeometry>
        </mxCell>
        <mxCell id="WIyWlLk6GJQsqaUBKTNV-5" value="无关" style="edgeStyle=orthogonalEdgeStyle;rounded=0;html=1;jettySize=auto;orthogonalLoop=1;fontSize=11;endArrow=block;endFill=0;endSize=8;strokeWidth=1;shadow=0;labelBackgroundColor=none;strokeColor=#E07A5F;fontColor=default;" parent="WIyWlLk6GJQsqaUBKTNV-1" source="WIyWlLk6GJQsqaUBKTNV-6" target="WIyWlLk6GJQsqaUBKTNV-7" edge="1">
          <mxGeometry y="10" relative="1" as="geometry">
            <mxPoint as="offset" />
          </mxGeometry>
        </mxCell>
        <mxCell id="WIyWlLk6GJQsqaUBKTNV-6" value="该张聊天截图是否与案件&lt;b&gt;有关&lt;/b&gt;" style="rhombus;whiteSpace=wrap;html=1;shadow=0;fontFamily=Helvetica;fontSize=12;align=center;strokeWidth=1;spacing=6;spacingTop=-4;labelBackgroundColor=none;" parent="WIyWlLk6GJQsqaUBKTNV-1" vertex="1">
          <mxGeometry x="570.5882352941176" y="102.89473684210525" width="166.0504201680672" height="119.73684210526316" as="geometry" />
        </mxCell>
        <mxCell id="f0hqfs33qwb6-Du-UBK_-54" style="edgeStyle=orthogonalEdgeStyle;rounded=0;orthogonalLoop=1;jettySize=auto;html=1;entryX=1;entryY=0.5;entryDx=0;entryDy=0;fontColor=#393C56;" edge="1" parent="WIyWlLk6GJQsqaUBKTNV-1" source="WIyWlLk6GJQsqaUBKTNV-7" target="f0hqfs33qwb6-Du-UBK_-51">
          <mxGeometry relative="1" as="geometry">
            <Array as="points">
              <mxPoint x="920" y="68" />
            </Array>
          </mxGeometry>
        </mxCell>
        <mxCell id="f0hqfs33qwb6-Du-UBK_-94" value="重启查漏补缺" style="edgeLabel;html=1;align=center;verticalAlign=middle;resizable=0;points=[];strokeColor=#E07A5F;fontColor=#393C56;fillColor=#F2CC8F;" vertex="1" connectable="0" parent="f0hqfs33qwb6-Du-UBK_-54">
          <mxGeometry x="-0.7241" y="-1" relative="1" as="geometry">
            <mxPoint as="offset" />
          </mxGeometry>
        </mxCell>
        <mxCell id="WIyWlLk6GJQsqaUBKTNV-7" value="候选无关证据池" style="rounded=1;whiteSpace=wrap;html=1;fontSize=12;glass=0;strokeWidth=1;shadow=0;labelBackgroundColor=none;fillColor=#dae8fc;strokeColor=#6c8ebf;" parent="WIyWlLk6GJQsqaUBKTNV-1" vertex="1">
          <mxGeometry x="867.7310924369747" y="144.34210526315786" width="104.87394957983192" height="36.84210526315789" as="geometry" />
        </mxCell>
        <mxCell id="f0hqfs33qwb6-Du-UBK_-3" value="" style="edgeStyle=orthogonalEdgeStyle;rounded=0;orthogonalLoop=1;jettySize=auto;html=1;fontColor=#393C56;exitX=0;exitY=0.5;exitDx=0;exitDy=0;" edge="1" parent="WIyWlLk6GJQsqaUBKTNV-1" source="WIyWlLk6GJQsqaUBKTNV-12" target="f0hqfs33qwb6-Du-UBK_-2">
          <mxGeometry relative="1" as="geometry" />
        </mxCell>
        <mxCell id="f0hqfs33qwb6-Du-UBK_-75" style="edgeStyle=orthogonalEdgeStyle;rounded=0;orthogonalLoop=1;jettySize=auto;html=1;exitX=0.5;exitY=1;exitDx=0;exitDy=0;fontColor=#393C56;" edge="1" parent="WIyWlLk6GJQsqaUBKTNV-1" source="WIyWlLk6GJQsqaUBKTNV-12" target="f0hqfs33qwb6-Du-UBK_-70">
          <mxGeometry relative="1" as="geometry" />
        </mxCell>
        <mxCell id="WIyWlLk6GJQsqaUBKTNV-12" value="候选有关证据池" style="rounded=1;whiteSpace=wrap;html=1;fontSize=12;glass=0;strokeWidth=1;shadow=0;labelBackgroundColor=none;fillColor=#dae8fc;strokeColor=#6c8ebf;" parent="WIyWlLk6GJQsqaUBKTNV-1" vertex="1">
          <mxGeometry x="601.1764705882354" y="250.00473684210527" width="104.87394957983192" height="36.84210526315789" as="geometry" />
        </mxCell>
        <mxCell id="f0hqfs33qwb6-Du-UBK_-38" style="edgeStyle=orthogonalEdgeStyle;rounded=0;orthogonalLoop=1;jettySize=auto;html=1;entryX=0;entryY=0.5;entryDx=0;entryDy=0;fontColor=#393C56;" edge="1" parent="WIyWlLk6GJQsqaUBKTNV-1" source="f0hqfs33qwb6-Du-UBK_-4" target="f0hqfs33qwb6-Du-UBK_-28">
          <mxGeometry relative="1" as="geometry">
            <Array as="points">
              <mxPoint x="280" y="488" />
              <mxPoint x="280" y="878" />
            </Array>
          </mxGeometry>
        </mxCell>
        <mxCell id="f0hqfs33qwb6-Du-UBK_-39" value="更新" style="edgeLabel;html=1;align=center;verticalAlign=middle;resizable=1;points=[];strokeColor=#E07A5F;fontColor=#393C56;fillColor=#F2CC8F;movable=1;rotatable=1;deletable=1;editable=1;locked=0;connectable=1;" vertex="1" connectable="0" parent="f0hqfs33qwb6-Du-UBK_-38">
          <mxGeometry x="0.0683" y="-2" relative="1" as="geometry">
            <mxPoint as="offset" />
          </mxGeometry>
        </mxCell>
        <mxCell id="f0hqfs33qwb6-Du-UBK_-80" style="edgeStyle=orthogonalEdgeStyle;rounded=0;orthogonalLoop=1;jettySize=auto;html=1;exitX=0;exitY=0.75;exitDx=0;exitDy=0;entryX=0.5;entryY=0;entryDx=0;entryDy=0;fontColor=#393C56;" edge="1" parent="WIyWlLk6GJQsqaUBKTNV-1" source="f0hqfs33qwb6-Du-UBK_-8" target="f0hqfs33qwb6-Du-UBK_-10">
          <mxGeometry relative="1" as="geometry" />
        </mxCell>
        <mxCell id="f0hqfs33qwb6-Du-UBK_-8" value="初筛证据池" style="whiteSpace=wrap;html=1;fillColor=#dae8fc;strokeColor=#6c8ebf;rounded=1;glass=0;strokeWidth=1;shadow=0;labelBackgroundColor=none;" vertex="1" parent="WIyWlLk6GJQsqaUBKTNV-1">
          <mxGeometry x="601.176974789916" y="530.0010526315789" width="104.87394957983192" height="55.26315789473684" as="geometry" />
        </mxCell>
        <mxCell id="f0hqfs33qwb6-Du-UBK_-50" style="edgeStyle=orthogonalEdgeStyle;rounded=0;orthogonalLoop=1;jettySize=auto;html=1;entryX=1;entryY=0.5;entryDx=0;entryDy=0;strokeColor=#E07A5F;fontColor=#393C56;fillColor=#F2CC8F;" edge="1" parent="WIyWlLk6GJQsqaUBKTNV-1" source="f0hqfs33qwb6-Du-UBK_-31" target="WIyWlLk6GJQsqaUBKTNV-7">
          <mxGeometry relative="1" as="geometry">
            <Array as="points">
              <mxPoint x="1060" y="1080" />
              <mxPoint x="1060" y="163" />
            </Array>
          </mxGeometry>
        </mxCell>
        <mxCell id="f0hqfs33qwb6-Du-UBK_-52" style="edgeStyle=orthogonalEdgeStyle;rounded=0;orthogonalLoop=1;jettySize=auto;html=1;entryX=0.5;entryY=0;entryDx=0;entryDy=0;fontColor=#393C56;" edge="1" parent="WIyWlLk6GJQsqaUBKTNV-1" source="f0hqfs33qwb6-Du-UBK_-51" target="WIyWlLk6GJQsqaUBKTNV-3">
          <mxGeometry relative="1" as="geometry" />
        </mxCell>
        <mxCell id="f0hqfs33qwb6-Du-UBK_-51" value="聊天截图" style="rounded=1;whiteSpace=wrap;html=1;fontSize=12;glass=0;strokeWidth=1;shadow=0;labelBackgroundColor=none;fillColor=#dae8fc;strokeColor=#6c8ebf;" vertex="1" parent="WIyWlLk6GJQsqaUBKTNV-1">
          <mxGeometry x="601.1764705882354" y="50" width="104.87394957983192" height="36.84210526315789" as="geometry" />
        </mxCell>
        <mxCell id="f0hqfs33qwb6-Du-UBK_-57" value="核心模块：目光在案件事实与法律规范之间来回往复" style="swimlane;whiteSpace=wrap;html=1;strokeColor=#9673a6;fillColor=#e1d5e7;" vertex="1" parent="WIyWlLk6GJQsqaUBKTNV-1">
          <mxGeometry x="20" y="200" width="510" height="320" as="geometry" />
        </mxCell>
        <mxCell id="f0hqfs33qwb6-Du-UBK_-64" style="edgeStyle=orthogonalEdgeStyle;rounded=0;orthogonalLoop=1;jettySize=auto;html=1;exitX=1;exitY=0.75;exitDx=0;exitDy=0;entryX=0.75;entryY=0;entryDx=0;entryDy=0;fontColor=#393C56;" edge="1" parent="f0hqfs33qwb6-Du-UBK_-57" source="f0hqfs33qwb6-Du-UBK_-2" target="f0hqfs33qwb6-Du-UBK_-60">
          <mxGeometry relative="1" as="geometry" />
        </mxCell>
        <mxCell id="f0hqfs33qwb6-Du-UBK_-2" value="大事记提取模块（时序整理）&lt;div&gt;&lt;span style=&quot;font-size:10.5pt;mso-bidi-font-size:&lt;br/&gt;11.0pt;font-family:&amp;quot;Times New Roman&amp;quot;,serif;mso-fareast-font-family:宋体;&lt;br/&gt;mso-font-kerning:1.0pt;mso-ansi-language:EN-US;mso-fareast-language:ZH-CN;&lt;br/&gt;mso-bidi-language:AR-SA&quot; lang=&quot;EN-US&quot;&gt;big_events_summarization&lt;/span&gt;&lt;/div&gt;" style="whiteSpace=wrap;html=1;fillColor=#ffe6cc;strokeColor=#d79b00;rounded=1;glass=0;strokeWidth=1;shadow=0;labelBackgroundColor=none;" vertex="1" parent="f0hqfs33qwb6-Du-UBK_-57">
          <mxGeometry x="244.62" y="40.79999999999998" width="165.71" height="55.26" as="geometry" />
        </mxCell>
        <mxCell id="f0hqfs33qwb6-Du-UBK_-4" value="庭审策略&lt;div&gt;【规划者】&lt;/div&gt;&lt;div&gt;&lt;span style=&quot;font-family: &amp;quot;Times New Roman&amp;quot;, serif; font-size: 14px;&quot;&gt;case_strategy&lt;/span&gt;&lt;/div&gt;" style="whiteSpace=wrap;html=1;fillColor=#fff2cc;strokeColor=#d6b656;rounded=1;glass=0;strokeWidth=1;shadow=0;labelBackgroundColor=none;" vertex="1" parent="f0hqfs33qwb6-Du-UBK_-57">
          <mxGeometry x="290.00033613445373" y="240.0010526315789" width="104.87394957983192" height="55.26315789473684" as="geometry" />
        </mxCell>
        <mxCell id="f0hqfs33qwb6-Du-UBK_-5" value="" style="edgeStyle=orthogonalEdgeStyle;rounded=0;orthogonalLoop=1;jettySize=auto;html=1;fontColor=#393C56;entryX=0.25;entryY=0;entryDx=0;entryDy=0;" edge="1" parent="f0hqfs33qwb6-Du-UBK_-57" target="f0hqfs33qwb6-Du-UBK_-61">
          <mxGeometry relative="1" as="geometry">
            <mxPoint x="240" y="80" as="sourcePoint" />
            <mxPoint x="220" y="120" as="targetPoint" />
            <Array as="points">
              <mxPoint x="219" y="80" />
            </Array>
          </mxGeometry>
        </mxCell>
        <mxCell id="f0hqfs33qwb6-Du-UBK_-67" style="edgeStyle=orthogonalEdgeStyle;rounded=0;orthogonalLoop=1;jettySize=auto;html=1;exitX=0.25;exitY=1;exitDx=0;exitDy=0;strokeColor=#E07A5F;fontColor=#393C56;fillColor=#F2CC8F;entryX=0.5;entryY=0;entryDx=0;entryDy=0;" edge="1" parent="f0hqfs33qwb6-Du-UBK_-57" source="f0hqfs33qwb6-Du-UBK_-60" target="f0hqfs33qwb6-Du-UBK_-4">
          <mxGeometry relative="1" as="geometry">
            <mxPoint x="400" y="240" as="targetPoint" />
            <Array as="points">
              <mxPoint x="386" y="220" />
              <mxPoint x="342" y="220" />
            </Array>
          </mxGeometry>
        </mxCell>
        <mxCell id="f0hqfs33qwb6-Du-UBK_-60" value="&lt;p data-pm-slice=&quot;1 1 []&quot;&gt;争议要点生成与证据指引模块&lt;span style=&quot;font-family: &amp;quot;Times New Roman&amp;quot;, serif; font-size: 10.5pt; background-color: transparent; color: light-dark(rgb(0, 0, 0), rgb(255, 255, 255));&quot;&gt;proof_analyse&lt;/span&gt;&lt;/p&gt;" style="whiteSpace=wrap;html=1;fillColor=#ffe6cc;strokeColor=#d79b00;rounded=1;glass=0;strokeWidth=1;shadow=0;labelBackgroundColor=none;" vertex="1" parent="f0hqfs33qwb6-Du-UBK_-57">
          <mxGeometry x="360.00033613445385" y="130.7410526315789" width="104.87394957983192" height="55.26315789473684" as="geometry" />
        </mxCell>
        <mxCell id="f0hqfs33qwb6-Du-UBK_-65" style="edgeStyle=orthogonalEdgeStyle;rounded=0;orthogonalLoop=1;jettySize=auto;html=1;entryX=0;entryY=0.5;entryDx=0;entryDy=0;fontColor=#393C56;shape=link;endArrow=block;" edge="1" parent="f0hqfs33qwb6-Du-UBK_-57" source="f0hqfs33qwb6-Du-UBK_-61" target="f0hqfs33qwb6-Du-UBK_-60">
          <mxGeometry relative="1" as="geometry" />
        </mxCell>
        <mxCell id="f0hqfs33qwb6-Du-UBK_-66" style="edgeStyle=orthogonalEdgeStyle;rounded=0;orthogonalLoop=1;jettySize=auto;html=1;exitX=0.75;exitY=1;exitDx=0;exitDy=0;entryX=0.5;entryY=0;entryDx=0;entryDy=0;strokeColor=#E07A5F;fontColor=#393C56;fillColor=#F2CC8F;" edge="1" parent="f0hqfs33qwb6-Du-UBK_-57" source="f0hqfs33qwb6-Du-UBK_-61" target="f0hqfs33qwb6-Du-UBK_-4">
          <mxGeometry relative="1" as="geometry">
            <Array as="points">
              <mxPoint x="276" y="220" />
              <mxPoint x="342" y="220" />
            </Array>
          </mxGeometry>
        </mxCell>
        <mxCell id="f0hqfs33qwb6-Du-UBK_-61" value="案由构建模块（请求权基础准备）&lt;div&gt;claim_planner&lt;/div&gt;" style="whiteSpace=wrap;html=1;fillColor=#ffe6cc;strokeColor=#d79b00;rounded=1;glass=0;strokeWidth=1;shadow=0;labelBackgroundColor=none;" vertex="1" parent="f0hqfs33qwb6-Du-UBK_-57">
          <mxGeometry x="190" y="125.37" width="114.87" height="66" as="geometry" />
        </mxCell>
        <mxCell id="f0hqfs33qwb6-Du-UBK_-69" style="edgeStyle=orthogonalEdgeStyle;rounded=0;orthogonalLoop=1;jettySize=auto;html=1;exitX=0.75;exitY=0;exitDx=0;exitDy=0;entryX=0;entryY=0.5;entryDx=0;entryDy=0;fontColor=#393C56;" edge="1" parent="f0hqfs33qwb6-Du-UBK_-57" source="f0hqfs33qwb6-Du-UBK_-48" target="f0hqfs33qwb6-Du-UBK_-61">
          <mxGeometry relative="1" as="geometry" />
        </mxCell>
        <mxCell id="f0hqfs33qwb6-Du-UBK_-93" style="edgeStyle=orthogonalEdgeStyle;rounded=0;orthogonalLoop=1;jettySize=auto;html=1;exitX=1;exitY=0.5;exitDx=0;exitDy=0;entryX=0;entryY=0.5;entryDx=0;entryDy=0;fontColor=#393C56;" edge="1" parent="f0hqfs33qwb6-Du-UBK_-57" source="f0hqfs33qwb6-Du-UBK_-48" target="f0hqfs33qwb6-Du-UBK_-4">
          <mxGeometry relative="1" as="geometry" />
        </mxCell>
        <mxCell id="f0hqfs33qwb6-Du-UBK_-48" value="&lt;span style=&quot;color: rgb(57, 60, 86); text-wrap-mode: nowrap;&quot;&gt;补充信息模块&lt;/span&gt;&lt;div&gt;&lt;span style=&quot;color: rgb(57, 60, 86); text-wrap-mode: nowrap;&quot;&gt;（类案检索、法律规范）&lt;/span&gt;&lt;div style=&quot;color: rgb(57, 60, 86); text-wrap-mode: nowrap;&quot;&gt;&lt;span style=&quot;font-size: 10.5pt; font-family: &amp;quot;Times New Roman&amp;quot;, serif;&quot; lang=&quot;EN-US&quot;&gt;supplementary&lt;/span&gt;&lt;/div&gt;&lt;/div&gt;" style="rounded=1;whiteSpace=wrap;html=1;fontSize=12;glass=0;strokeWidth=1;shadow=0;fillColor=#e1d5e7;strokeColor=#9673a6;labelBackgroundColor=none;" vertex="1" parent="f0hqfs33qwb6-Du-UBK_-57">
          <mxGeometry x="40" y="238.95" width="140" height="57.37" as="geometry" />
        </mxCell>
        <mxCell id="f0hqfs33qwb6-Du-UBK_-42" style="edgeStyle=orthogonalEdgeStyle;rounded=0;orthogonalLoop=1;jettySize=auto;html=1;strokeColor=#E07A5F;fontColor=#393C56;fillColor=#F2CC8F;entryX=1;entryY=0.5;entryDx=0;entryDy=0;movable=1;resizable=1;rotatable=1;deletable=1;editable=1;locked=0;connectable=1;" edge="1" parent="WIyWlLk6GJQsqaUBKTNV-1" source="f0hqfs33qwb6-Du-UBK_-0" target="f0hqfs33qwb6-Du-UBK_-20">
          <mxGeometry relative="1" as="geometry">
            <mxPoint x="740" y="878" as="targetPoint" />
            <Array as="points">
              <mxPoint x="933" y="880" />
              <mxPoint x="720" y="880" />
              <mxPoint x="720" y="878" />
            </Array>
          </mxGeometry>
        </mxCell>
        <mxCell id="f0hqfs33qwb6-Du-UBK_-0" value="对抗视角批判反馈&lt;div&gt;adversarial&lt;/div&gt;" style="rounded=1;whiteSpace=wrap;html=1;fontSize=12;glass=0;strokeWidth=1;shadow=0;fillColor=#ffe6cc;strokeColor=#d79b00;labelBackgroundColor=none;movable=1;resizable=1;rotatable=1;deletable=1;editable=1;locked=0;connectable=1;" vertex="1" parent="WIyWlLk6GJQsqaUBKTNV-1">
          <mxGeometry x="845.8823529411764" y="749.2068421052631" width="174.78991596638653" height="55.26315789473684" as="geometry" />
        </mxCell>
        <mxCell id="f0hqfs33qwb6-Du-UBK_-13" value="" style="edgeStyle=orthogonalEdgeStyle;rounded=0;orthogonalLoop=1;jettySize=auto;html=1;strokeColor=#E07A5F;fontColor=#393C56;fillColor=#F2CC8F;movable=1;resizable=1;rotatable=1;deletable=1;editable=1;locked=0;connectable=1;" edge="1" parent="WIyWlLk6GJQsqaUBKTNV-1" source="f0hqfs33qwb6-Du-UBK_-10" target="f0hqfs33qwb6-Du-UBK_-12">
          <mxGeometry relative="1" as="geometry" />
        </mxCell>
        <mxCell id="f0hqfs33qwb6-Du-UBK_-10" value="证明力分析模块&lt;div&gt;&lt;span style=&quot;font-size:10.5pt;mso-bidi-font-size:&lt;br/&gt;11.0pt;font-family:&amp;quot;Times New Roman&amp;quot;,serif;mso-fareast-font-family:宋体;&lt;br/&gt;mso-font-kerning:1.0pt;mso-ansi-language:EN-US;mso-fareast-language:ZH-CN;&lt;br/&gt;mso-bidi-language:AR-SA&quot; lang=&quot;EN-US&quot;&gt;evidence_stratification&lt;/span&gt;&lt;/div&gt;" style="whiteSpace=wrap;html=1;fillColor=#ffe6cc;strokeColor=#d79b00;rounded=1;glass=0;strokeWidth=1;shadow=0;labelBackgroundColor=none;movable=1;resizable=1;rotatable=1;deletable=1;editable=1;locked=0;connectable=1;" vertex="1" parent="WIyWlLk6GJQsqaUBKTNV-1">
          <mxGeometry x="320" y="619.21" width="145.71" height="55.26" as="geometry" />
        </mxCell>
        <mxCell id="f0hqfs33qwb6-Du-UBK_-15" value="" style="edgeStyle=orthogonalEdgeStyle;rounded=0;orthogonalLoop=1;jettySize=auto;html=1;strokeColor=#E07A5F;fontColor=#393C56;fillColor=#F2CC8F;movable=1;resizable=1;rotatable=1;deletable=1;editable=1;locked=0;connectable=1;" edge="1" parent="WIyWlLk6GJQsqaUBKTNV-1" source="f0hqfs33qwb6-Du-UBK_-12" target="f0hqfs33qwb6-Du-UBK_-14">
          <mxGeometry relative="1" as="geometry" />
        </mxCell>
        <mxCell id="f0hqfs33qwb6-Du-UBK_-16" value="有利 / 中立" style="edgeLabel;html=1;align=center;verticalAlign=middle;resizable=1;points=[];strokeColor=#E07A5F;fontColor=#393C56;fillColor=#F2CC8F;movable=1;rotatable=1;deletable=1;editable=1;locked=0;connectable=1;" vertex="1" connectable="0" parent="f0hqfs33qwb6-Du-UBK_-15">
          <mxGeometry x="-0.2833" y="3" relative="1" as="geometry">
            <mxPoint as="offset" />
          </mxGeometry>
        </mxCell>
        <mxCell id="f0hqfs33qwb6-Du-UBK_-18" value="" style="edgeStyle=orthogonalEdgeStyle;rounded=0;orthogonalLoop=1;jettySize=auto;html=1;strokeColor=#E07A5F;fontColor=#393C56;fillColor=#F2CC8F;movable=1;resizable=1;rotatable=1;deletable=1;editable=1;locked=0;connectable=1;" edge="1" parent="WIyWlLk6GJQsqaUBKTNV-1" source="f0hqfs33qwb6-Du-UBK_-12" target="f0hqfs33qwb6-Du-UBK_-17">
          <mxGeometry relative="1" as="geometry" />
        </mxCell>
        <mxCell id="f0hqfs33qwb6-Du-UBK_-19" value="不利" style="edgeLabel;html=1;align=center;verticalAlign=middle;resizable=1;points=[];strokeColor=#E07A5F;fontColor=#393C56;fillColor=#F2CC8F;movable=1;rotatable=1;deletable=1;editable=1;locked=0;connectable=1;" vertex="1" connectable="0" parent="f0hqfs33qwb6-Du-UBK_-18">
          <mxGeometry x="-0.2373" relative="1" as="geometry">
            <mxPoint as="offset" />
          </mxGeometry>
        </mxCell>
        <mxCell id="f0hqfs33qwb6-Du-UBK_-12" value="该张截图证明力&lt;b&gt;大小&lt;/b&gt;如何&lt;div&gt;（有利程度）&lt;/div&gt;" style="rhombus;whiteSpace=wrap;html=1;rounded=1;glass=0;strokeWidth=1;shadow=0;labelBackgroundColor=none;movable=1;resizable=1;rotatable=1;deletable=1;editable=1;locked=0;connectable=1;" vertex="1" parent="WIyWlLk6GJQsqaUBKTNV-1">
          <mxGeometry x="561.8492436974789" y="609.9978947368421" width="183.52941176470586" height="73.68421052631578" as="geometry" />
        </mxCell>
        <mxCell id="f0hqfs33qwb6-Du-UBK_-23" style="edgeStyle=orthogonalEdgeStyle;rounded=0;orthogonalLoop=1;jettySize=auto;html=1;entryX=0;entryY=0.5;entryDx=0;entryDy=0;fontColor=#393C56;movable=1;resizable=1;rotatable=1;deletable=1;editable=1;locked=0;connectable=1;" edge="1" parent="WIyWlLk6GJQsqaUBKTNV-1" source="f0hqfs33qwb6-Du-UBK_-14" target="f0hqfs33qwb6-Du-UBK_-0">
          <mxGeometry relative="1" as="geometry" />
        </mxCell>
        <mxCell id="f0hqfs33qwb6-Du-UBK_-24" value="低" style="edgeLabel;html=1;align=center;verticalAlign=middle;resizable=1;points=[];strokeColor=#E07A5F;fontColor=#393C56;fillColor=#F2CC8F;movable=1;rotatable=1;deletable=1;editable=1;locked=0;connectable=1;" vertex="1" connectable="0" parent="f0hqfs33qwb6-Du-UBK_-23">
          <mxGeometry x="0.1207" y="-3" relative="1" as="geometry">
            <mxPoint as="offset" />
          </mxGeometry>
        </mxCell>
        <mxCell id="f0hqfs33qwb6-Du-UBK_-40" style="edgeStyle=orthogonalEdgeStyle;rounded=0;orthogonalLoop=1;jettySize=auto;html=1;strokeColor=#E07A5F;fontColor=#393C56;fillColor=#F2CC8F;exitX=0.5;exitY=1;exitDx=0;exitDy=0;movable=1;resizable=1;rotatable=1;deletable=1;editable=1;locked=0;connectable=1;" edge="1" parent="WIyWlLk6GJQsqaUBKTNV-1" source="f0hqfs33qwb6-Du-UBK_-14" target="f0hqfs33qwb6-Du-UBK_-20">
          <mxGeometry relative="1" as="geometry" />
        </mxCell>
        <mxCell id="f0hqfs33qwb6-Du-UBK_-41" value="高" style="edgeLabel;html=1;align=center;verticalAlign=middle;resizable=1;points=[];strokeColor=#E07A5F;fontColor=#393C56;fillColor=#F2CC8F;movable=1;rotatable=1;deletable=1;editable=1;locked=0;connectable=1;" vertex="1" connectable="0" parent="f0hqfs33qwb6-Du-UBK_-40">
          <mxGeometry x="-0.3889" y="1" relative="1" as="geometry">
            <mxPoint as="offset" />
          </mxGeometry>
        </mxCell>
        <mxCell id="f0hqfs33qwb6-Du-UBK_-14" value="置信度" style="rhombus;whiteSpace=wrap;html=1;rounded=1;glass=0;strokeWidth=1;shadow=0;labelBackgroundColor=none;movable=1;resizable=1;rotatable=1;deletable=1;editable=1;locked=0;connectable=1;" vertex="1" parent="WIyWlLk6GJQsqaUBKTNV-1">
          <mxGeometry x="561.8492436974789" y="739.9963157894737" width="183.52941176470586" height="73.68421052631578" as="geometry" />
        </mxCell>
        <mxCell id="f0hqfs33qwb6-Du-UBK_-17" value="不利证据池" style="whiteSpace=wrap;html=1;rounded=1;glass=0;strokeWidth=1;shadow=0;labelBackgroundColor=none;fillColor=#dae8fc;strokeColor=#6c8ebf;movable=1;resizable=1;rotatable=1;deletable=1;editable=1;locked=0;connectable=1;" vertex="1" parent="WIyWlLk6GJQsqaUBKTNV-1">
          <mxGeometry x="867.7310924369747" y="619.2084210526315" width="113.61344537815125" height="55.26315789473684" as="geometry" />
        </mxCell>
        <mxCell id="f0hqfs33qwb6-Du-UBK_-45" style="edgeStyle=orthogonalEdgeStyle;rounded=0;orthogonalLoop=1;jettySize=auto;html=1;fontColor=#393C56;entryX=1;entryY=0.5;entryDx=0;entryDy=0;movable=1;resizable=1;rotatable=1;deletable=1;editable=1;locked=0;connectable=1;" edge="1" parent="WIyWlLk6GJQsqaUBKTNV-1" source="f0hqfs33qwb6-Du-UBK_-20" target="f0hqfs33qwb6-Du-UBK_-28">
          <mxGeometry relative="1" as="geometry">
            <Array as="points" />
          </mxGeometry>
        </mxCell>
        <mxCell id="f0hqfs33qwb6-Du-UBK_-20" value="有利&amp;amp;中立证据池" style="whiteSpace=wrap;html=1;rounded=1;glass=0;strokeWidth=1;shadow=0;labelBackgroundColor=none;fillColor=#dae8fc;strokeColor=#6c8ebf;movable=1;resizable=1;rotatable=1;deletable=1;editable=1;locked=0;connectable=1;" vertex="1" parent="WIyWlLk6GJQsqaUBKTNV-1">
          <mxGeometry x="601.176974789916" y="850.0036842105262" width="104.87394957983192" height="55.26315789473684" as="geometry" />
        </mxCell>
        <mxCell id="f0hqfs33qwb6-Du-UBK_-30" value="" style="edgeStyle=orthogonalEdgeStyle;rounded=0;orthogonalLoop=1;jettySize=auto;html=1;strokeColor=#E07A5F;fontColor=#393C56;fillColor=#F2CC8F;entryX=0;entryY=0.5;entryDx=0;entryDy=0;movable=1;resizable=1;rotatable=1;deletable=1;editable=1;locked=0;connectable=1;" edge="1" parent="WIyWlLk6GJQsqaUBKTNV-1" source="f0hqfs33qwb6-Du-UBK_-28" target="f0hqfs33qwb6-Du-UBK_-29">
          <mxGeometry relative="1" as="geometry">
            <Array as="points">
              <mxPoint x="422" y="970" />
              <mxPoint x="584" y="970" />
            </Array>
          </mxGeometry>
        </mxCell>
        <mxCell id="f0hqfs33qwb6-Du-UBK_-28" value="核查模块&lt;div&gt;&lt;span style=&quot;font-size:10.5pt;mso-bidi-font-size:&lt;br/&gt;11.0pt;font-family:&amp;quot;Times New Roman&amp;quot;,serif;mso-fareast-font-family:宋体;&lt;br/&gt;mso-font-kerning:1.0pt;mso-ansi-language:EN-US;mso-fareast-language:ZH-CN;&lt;br/&gt;mso-bidi-language:AR-SA&quot; lang=&quot;EN-US&quot;&gt;strategy_check&lt;/span&gt;&lt;/div&gt;" style="whiteSpace=wrap;html=1;fillColor=#ffe6cc;strokeColor=#d79b00;rounded=1;glass=0;strokeWidth=1;shadow=0;labelBackgroundColor=none;movable=1;resizable=1;rotatable=1;deletable=1;editable=1;locked=0;connectable=1;" vertex="1" parent="WIyWlLk6GJQsqaUBKTNV-1">
          <mxGeometry x="369.57983193277306" y="850.0036842105262" width="104.87394957983192" height="55.26315789473684" as="geometry" />
        </mxCell>
        <mxCell id="f0hqfs33qwb6-Du-UBK_-32" value="" style="edgeStyle=orthogonalEdgeStyle;rounded=0;orthogonalLoop=1;jettySize=auto;html=1;strokeColor=#E07A5F;fontColor=#393C56;fillColor=#F2CC8F;movable=1;resizable=1;rotatable=1;deletable=1;editable=1;locked=0;connectable=1;" edge="1" parent="WIyWlLk6GJQsqaUBKTNV-1" source="f0hqfs33qwb6-Du-UBK_-29" target="f0hqfs33qwb6-Du-UBK_-31">
          <mxGeometry relative="1" as="geometry" />
        </mxCell>
        <mxCell id="f0hqfs33qwb6-Du-UBK_-33" value="失败" style="edgeLabel;html=1;align=center;verticalAlign=middle;resizable=1;points=[];strokeColor=#E07A5F;fontColor=#393C56;fillColor=#F2CC8F;movable=1;rotatable=1;deletable=1;editable=1;locked=0;connectable=1;" vertex="1" connectable="0" parent="f0hqfs33qwb6-Du-UBK_-32">
          <mxGeometry x="-0.0533" y="-2" relative="1" as="geometry">
            <mxPoint as="offset" />
          </mxGeometry>
        </mxCell>
        <mxCell id="f0hqfs33qwb6-Du-UBK_-35" value="" style="edgeStyle=orthogonalEdgeStyle;rounded=0;orthogonalLoop=1;jettySize=auto;html=1;fontColor=#393C56;entryX=0.5;entryY=0;entryDx=0;entryDy=0;movable=1;resizable=1;rotatable=1;deletable=1;editable=1;locked=0;connectable=1;" edge="1" parent="WIyWlLk6GJQsqaUBKTNV-1" source="f0hqfs33qwb6-Du-UBK_-29" target="f0hqfs33qwb6-Du-UBK_-34">
          <mxGeometry relative="1" as="geometry">
            <Array as="points" />
          </mxGeometry>
        </mxCell>
        <mxCell id="f0hqfs33qwb6-Du-UBK_-36" value="构成" style="edgeLabel;html=1;align=center;verticalAlign=middle;resizable=1;points=[];strokeColor=#E07A5F;fontColor=#393C56;fillColor=#F2CC8F;movable=1;rotatable=1;deletable=1;editable=1;locked=0;connectable=1;" vertex="1" connectable="0" parent="f0hqfs33qwb6-Du-UBK_-35">
          <mxGeometry x="-0.1556" y="-3" relative="1" as="geometry">
            <mxPoint as="offset" />
          </mxGeometry>
        </mxCell>
        <mxCell id="f0hqfs33qwb6-Du-UBK_-29" value="是否构成完整证据链？" style="rhombus;whiteSpace=wrap;html=1;rounded=1;glass=0;strokeWidth=1;shadow=0;labelBackgroundColor=none;movable=1;resizable=1;rotatable=1;deletable=1;editable=1;locked=0;connectable=1;" vertex="1" parent="WIyWlLk6GJQsqaUBKTNV-1">
          <mxGeometry x="583.6974789915965" y="929.9984210526314" width="139.83193277310923" height="73.68421052631578" as="geometry" />
        </mxCell>
        <mxCell id="f0hqfs33qwb6-Du-UBK_-31" value="缺少证据反馈" style="whiteSpace=wrap;html=1;fillColor=#f8cecc;strokeColor=#b85450;rounded=1;glass=0;strokeWidth=1;shadow=0;labelBackgroundColor=none;movable=1;resizable=1;rotatable=1;deletable=1;editable=1;locked=0;connectable=1;" vertex="1" parent="WIyWlLk6GJQsqaUBKTNV-1">
          <mxGeometry x="889.9995798319327" y="1049.9989473684209" width="104.87394957983192" height="55.26315789473684" as="geometry" />
        </mxCell>
        <mxCell id="f0hqfs33qwb6-Du-UBK_-34" value="输出目录，结束" style="whiteSpace=wrap;html=1;fillColor=#d5e8d4;strokeColor=#82b366;rounded=1;glass=0;strokeWidth=1;shadow=0;labelBackgroundColor=none;movable=1;resizable=1;rotatable=1;deletable=1;editable=1;locked=0;connectable=1;" vertex="1" parent="WIyWlLk6GJQsqaUBKTNV-1">
          <mxGeometry x="601.1764705882354" y="1049.996842105263" width="104.87394957983192" height="55.26315789473684" as="geometry" />
        </mxCell>
        <mxCell id="f0hqfs33qwb6-Du-UBK_-43" style="edgeStyle=orthogonalEdgeStyle;rounded=0;orthogonalLoop=1;jettySize=auto;html=1;entryX=0.569;entryY=1.017;entryDx=0;entryDy=0;entryPerimeter=0;strokeColor=#E07A5F;fontColor=#393C56;fillColor=#F2CC8F;movable=1;resizable=1;rotatable=1;deletable=1;editable=1;locked=0;connectable=1;" edge="1" parent="WIyWlLk6GJQsqaUBKTNV-1" source="f0hqfs33qwb6-Du-UBK_-0" target="f0hqfs33qwb6-Du-UBK_-17">
          <mxGeometry relative="1" as="geometry" />
        </mxCell>
        <mxCell id="f0hqfs33qwb6-Du-UBK_-70" value="对抗视角批判反馈&lt;div&gt;adversarial&lt;/div&gt;" style="rounded=1;whiteSpace=wrap;html=1;fontSize=12;glass=0;strokeWidth=1;shadow=0;fillColor=#ffe6cc;strokeColor=#d79b00;labelBackgroundColor=none;movable=1;resizable=1;rotatable=1;deletable=1;editable=1;locked=0;connectable=1;" vertex="1" parent="WIyWlLk6GJQsqaUBKTNV-1">
          <mxGeometry x="566.2223529411764" y="439.99684210526317" width="174.78991596638653" height="55.26315789473684" as="geometry" />
        </mxCell>
        <mxCell id="f0hqfs33qwb6-Du-UBK_-78" style="edgeStyle=orthogonalEdgeStyle;rounded=0;orthogonalLoop=1;jettySize=auto;html=1;exitX=1;exitY=0.5;exitDx=0;exitDy=0;entryX=0;entryY=0.5;entryDx=0;entryDy=0;fontColor=#393C56;shape=link;" edge="1" parent="WIyWlLk6GJQsqaUBKTNV-1" source="f0hqfs33qwb6-Du-UBK_-4" target="f0hqfs33qwb6-Du-UBK_-70">
          <mxGeometry relative="1" as="geometry" />
        </mxCell>
        <mxCell id="f0hqfs33qwb6-Du-UBK_-79" style="edgeStyle=orthogonalEdgeStyle;rounded=0;orthogonalLoop=1;jettySize=auto;html=1;entryX=0;entryY=0.5;entryDx=0;entryDy=0;strokeColor=#E07A5F;fontColor=#393C56;fillColor=#F2CC8F;" edge="1" parent="WIyWlLk6GJQsqaUBKTNV-1" source="f0hqfs33qwb6-Du-UBK_-4" target="f0hqfs33qwb6-Du-UBK_-8">
          <mxGeometry relative="1" as="geometry">
            <Array as="points">
              <mxPoint x="393" y="558" />
            </Array>
          </mxGeometry>
        </mxCell>
      </root>
    </mxGraphModel>
  </diagram>
  <diagram id="4xeyHX0J2MRqxxhU3FGY" name="第 2 页">
    <mxGraphModel grid="1" page="1" gridSize="10" guides="1" tooltips="1" connect="1" arrows="1" fold="1" pageScale="1" pageWidth="1169" pageHeight="827" math="0" shadow="0">
      <root>
        <mxCell id="0" />
        <mxCell id="1" parent="0" />
      </root>
    </mxGraphModel>
  </diagram>
</mxfile>
